<?xml version="1.0" encoding="UTF-8" standalone="no"?>
<svg
   xmlns:ooo="http://xml.openoffice.org/svg/export"
   xmlns:dc="http://purl.org/dc/elements/1.1/"
   xmlns:cc="http://creativecommons.org/ns#"
   xmlns:rdf="http://www.w3.org/1999/02/22-rdf-syntax-ns#"
   xmlns:svg="http://www.w3.org/2000/svg"
   xmlns="http://www.w3.org/2000/svg"
   xmlns:sodipodi="http://sodipodi.sourceforge.net/DTD/sodipodi-0.dtd"
   xmlns:inkscape="http://www.inkscape.org/namespaces/inkscape"
   version="1.2"
   width="64"
   height="64"
   viewBox="0 0 1806.2223 1806.2222"
   preserveAspectRatio="xMidYMid"
   clip-path="url(#presentation_clip_path)"
   xml:space="preserve"
   id="svg3538"
   inkscape:version="0.48.4 r9939"
   sodipodi:docname="beacon_vector.svg"
   style="fill-rule:evenodd;stroke-width:28.22200012;stroke-linejoin:round"><metadata
     id="metadata4051"><rdf:RDF><cc:Work
         rdf:about=""><dc:format>image/svg+xml</dc:format><dc:type
           rdf:resource="http://purl.org/dc/dcmitype/StillImage" /><dc:title></dc:title></cc:Work></rdf:RDF></metadata><sodipodi:namedview
     pagecolor="#ffffff"
     bordercolor="#666666"
     borderopacity="1"
     objecttolerance="10"
     gridtolerance="10"
     guidetolerance="10"
     inkscape:pageopacity="0"
     inkscape:pageshadow="2"
     inkscape:window-width="1425"
     inkscape:window-height="873"
     id="namedview4049"
     showgrid="false"
     inkscape:zoom="6.8223852"
     inkscape:cx="74.334135"
     inkscape:cy="43.360664"
     inkscape:window-x="0"
     inkscape:window-y="0"
     inkscape:window-maximized="0"
     inkscape:current-layer="svg3538"
     width="64px" /><defs
     class="ClipPathGroup"
     id="defs3540"><clipPath
       id="presentation_clip_path"
       clipPathUnits="userSpaceOnUse"><rect
         x="0"
         y="0"
         width="21000"
         height="29700"
         id="rect3543" /></clipPath></defs><defs
     class="TextShapeIndex"
     id="defs3545"><g
       ooo:slide="id1"
       ooo:id-list="id3 id4 id5 id6 id7 id8 id9 id10 id11 id12 id13 id14 id15 id16 id17 id18 id19 id20 id21 id22 id23 id24 id25 id26 id27 id28 id29 id30 id31 id32 id33 id34 id35 id36 id37 id38 id39 id40 id41 id42 id43 id44 id45 id46 id47 id48 id49 id50 id51 id52 id53 id54 id55 id56 id57 id58 id59"
       id="g3547" /></defs><defs
     class="EmbeddedBulletChars"
     id="defs3549"><g
       id="bullet-char-template(57356)"
       transform="scale(4.8828125e-4,-4.8828125e-4)"><path
         d="M 580,1141 1163,571 580,0 -4,571 580,1141 z"
         id="path3552"
         inkscape:connector-curvature="0" /></g><g
       id="bullet-char-template(57354)"
       transform="scale(4.8828125e-4,-4.8828125e-4)"><path
         d="m 8,1128 1129,0 L 1137,0 8,0 8,1128 z"
         id="path3555"
         inkscape:connector-curvature="0" /></g><g
       id="bullet-char-template(10146)"
       transform="scale(4.8828125e-4,-4.8828125e-4)"><path
         d="M 174,0 602,739 174,1481 1456,739 174,0 z m 1184,739 -1049,607 350,-607 699,0 z"
         id="path3558"
         inkscape:connector-curvature="0" /></g><g
       id="bullet-char-template(10132)"
       transform="scale(4.8828125e-4,-4.8828125e-4)"><path
         d="M 2015,739 1276,0 717,0 l 543,543 -1086,0 0,393 1086,0 -543,545 557,0 741,-742 z"
         id="path3561"
         inkscape:connector-curvature="0" /></g><g
       id="bullet-char-template(10007)"
       transform="scale(4.8828125e-4,-4.8828125e-4)"><path
         d="m 0,-2 c -7,16 -16,29 -25,39 l 381,530 c -94,256 -141,385 -141,387 0,25 13,38 40,38 9,0 21,-2 34,-5 21,4 42,12 65,25 l 27,-13 111,-251 280,301 64,-25 24,25 c 21,-10 41,-24 62,-43 C 886,937 835,863 770,784 769,783 710,716 594,584 L 774,223 c 0,-27 -21,-55 -63,-84 l 16,-20 C 717,90 699,76 672,76 641,76 570,178 457,381 L 164,-76 c -22,-34 -53,-51 -92,-51 -42,0 -63,17 -64,51 -7,9 -10,24 -10,44 0,9 1,19 2,30 z"
         id="path3564"
         inkscape:connector-curvature="0" /></g><g
       id="bullet-char-template(10004)"
       transform="scale(4.8828125e-4,-4.8828125e-4)"><path
         d="M 285,-33 C 182,-33 111,30 74,156 52,228 41,333 41,471 c 0,78 14,145 41,201 34,71 87,106 158,106 53,0 88,-31 106,-94 l 23,-176 c 8,-64 28,-97 59,-98 l 735,706 c 11,11 33,17 66,17 42,0 63,-15 63,-46 l 0,-122 c 0,-36 -10,-64 -30,-84 L 442,47 C 390,-6 338,-33 285,-33 z"
         id="path3567"
         inkscape:connector-curvature="0" /></g><g
       id="bullet-char-template(9679)"
       transform="scale(4.8828125e-4,-4.8828125e-4)"><path
         d="M 813,0 C 632,0 489,54 383,161 276,268 223,411 223,592 c 0,181 53,324 160,431 106,107 249,161 430,161 179,0 323,-54 432,-161 108,-107 162,-251 162,-431 0,-180 -54,-324 -162,-431 C 1136,54 992,0 813,0 z"
         id="path3570"
         inkscape:connector-curvature="0" /></g><g
       id="bullet-char-template(8226)"
       transform="scale(4.8828125e-4,-4.8828125e-4)"><path
         d="m 346,457 c -73,0 -137,26 -191,78 -54,51 -81,114 -81,188 0,73 27,136 81,188 54,52 118,78 191,78 73,0 134,-26 185,-79 51,-51 77,-114 77,-187 0,-75 -25,-137 -76,-188 -50,-52 -112,-78 -186,-78 z"
         id="path3573"
         inkscape:connector-curvature="0" /></g><g
       id="bullet-char-template(8211)"
       transform="scale(4.8828125e-4,-4.8828125e-4)"><path
         d="m -4,459 1139,0 0,147 -1139,0 0,-147 z"
         id="path3576"
         inkscape:connector-curvature="0" /></g></defs><defs
     class="TextEmbeddedBitmaps"
     id="defs3578" /><g
     id="g3580"
     transform="translate(0,-27893.777)"><g
       id="id2"
       class="Master_Slide"><g
         id="bg-id2"
         class="Background" /><g
         id="bo-id2"
         class="BackgroundObjects" /></g></g><g
     id="g3822"
     class="com.sun.star.drawing.CustomShape"
     transform="translate(-10577.764,-8664.9626)"
     style="stroke:#2c5aa0;fill:#2c5aa0"><g
       id="id31"
       style="stroke:#2c5aa0;fill:#2c5aa0"><path
         style="fill:#2c5aa0;stroke:#2c5aa0"
         inkscape:connector-curvature="0"
         id="path3825"
         d="m 10901,9162 c 237,-57 542,49 656,316 114,268 -21,560 -225,692 307,-130 460,-465 342,-741 -118,-277 -467,-398 -773,-267 l 0,0 z m 557,-237 0,0 z m -126,1245 0,0 z" /><path
         style="fill:#2c5aa0;stroke:#2c5aa0;stroke-width:102"
         inkscape:connector-curvature="0"
         id="path3827"
         d="m 10901,9162 c 237,-57 542,49 656,316 114,268 -21,560 -225,692 307,-130 460,-465 342,-741 -118,-277 -467,-398 -773,-267 l 0,0 z" /></g></g><g
     id="g3829"
     class="com.sun.star.drawing.CustomShape"
     transform="translate(-10577.764,-8664.9626)"
     style="stroke:#87aade;fill:#87aade"><g
       id="id32"
       style="stroke:#87aade;fill:#87aade"><path
         style="fill:#87aade;stroke:#87aade"
         inkscape:connector-curvature="0"
         id="path3832"
         d="m 11455,8963 c 217,-36 501,87 623,374 121,285 13,575 -164,707 286,-122 417,-465 292,-762 -127,-297 -465,-440 -751,-319 l 0,0 z m 521,-221 0,0 z m -62,1302 0,0 z" /><path
         style="fill:#87aade;stroke:#87aade;stroke-width:102"
         inkscape:connector-curvature="0"
         id="path3834"
         d="m 11455,8963 c 217,-36 501,87 623,374 121,285 13,575 -164,707 286,-122 417,-465 292,-762 -127,-297 -465,-440 -751,-319 l 0,0 z" /></g></g><g
     id="g3836"
     class="com.sun.star.drawing.CustomShape"
     transform="translate(-10577.764,-8664.9626)"><g
       id="id33"><path
         style="fill:#3465a4;stroke:none"
         inkscape:connector-curvature="0"
         id="path3839"
         d="m 10906,9534 c 144,0 254,110 254,254 0,144 -110,254 -254,254 -144,0 -254,-110 -254,-254 0,-144 110,-254 254,-254 z m -254,0 0,0 z m 509,509 0,0 z" /><path
         style="fill:none;stroke:#3465af"
         inkscape:connector-curvature="0"
         id="path3841"
         d="m 10906,9534 c 144,0 254,110 254,254 0,144 -110,254 -254,254 -144,0 -254,-110 -254,-254 0,-144 110,-254 254,-254 z" /><path
         style="fill:none;stroke:#3465af"
         inkscape:connector-curvature="0"
         id="path3843"
         d="m 10652,9534 0,0 z" /><path
         style="fill:none;stroke:#3465af"
         inkscape:connector-curvature="0"
         id="path3845"
         d="m 11161,10043 0,0 z" /></g></g><g
     id="g3847"
     class="com.sun.star.drawing.CustomShape"
     transform="translate(-10577.764,-8664.9626)"><g
       id="id34"><path
         style="fill:#3465a4;stroke:none"
         inkscape:connector-curvature="0"
         id="path3850"
         d="m 10900,9534 134,763 -255,0 121,-763 z m -121,0 0,0 z m 255,763 0,0 z" /><path
         style="fill:none;stroke:#3465af"
         inkscape:connector-curvature="0"
         id="path3852"
         d="m 10900,9534 134,763 -255,0 121,-763 z" /><path
         style="fill:none;stroke:#3465af"
         inkscape:connector-curvature="0"
         id="path3854"
         d="m 10779,9534 0,0 z" /><path
         style="fill:none;stroke:#3465af"
         inkscape:connector-curvature="0"
         id="path3856"
         d="m 11034,10297 0,0 z" /></g></g></svg>